<svg width="164" height="38" viewBox="0 0 164 38" fill="none" xmlns="http://www.w3.org/2000/svg">
<g clip-path="url(#clip0_1514_536)">
<path d="M38.4228 5.26367C46.9428 5.78961 53.3724 9.0644 54.5185 14.2139C56.188 21.7149 46.0136 30.3538 31.793 33.5098C17.5722 36.6657 4.69004 33.1436 3.02049 25.6426C1.82642 20.2775 6.69186 14.3304 14.7627 10.2236C14.3635 11.5136 14.1494 12.8848 14.1494 14.3057C14.1495 21.9301 20.3392 28.1113 27.9746 28.1113C35.6101 28.1113 41.7997 21.9301 41.7998 14.3057C41.7998 10.8475 40.5269 7.68589 38.4228 5.26367Z" fill="url(#paint0_radial_1514_536)"/>
<path d="M38.4228 5.26367C46.9428 5.78961 53.3724 9.0644 54.5185 14.2139C56.188 21.7149 46.0136 30.3538 31.793 33.5098C17.5722 36.6657 4.69004 33.1436 3.02049 25.6426C1.82642 20.2775 6.69186 14.3304 14.7627 10.2236C14.3635 11.5136 14.1494 12.8848 14.1494 14.3057C14.1495 21.9301 20.3392 28.1113 27.9746 28.1113C35.6101 28.1113 41.7997 21.9301 41.7998 14.3057C41.7998 10.8475 40.5269 7.68589 38.4228 5.26367Z" fill="url(#paint1_radial_1514_536)" fill-opacity="0.5"/>
<g filter="url(#filter0_i_1514_536)">
<path d="M27.9748 28.1109C35.6103 28.1109 41.8001 21.93 41.8001 14.3055C41.8001 6.68091 35.6103 0.5 27.9748 0.5C20.3392 0.5 14.1494 6.68091 14.1494 14.3055C14.1494 21.93 20.3392 28.1109 27.9748 28.1109Z" fill="white"/>
</g>
<path d="M70.1217 34.2924H68.4163L64.363 28.4909V34.2924H62.6576V25.5391H64.363L68.4163 31.3519V25.5391H70.1217V34.2924Z" fill="#1E3A8A" fill-opacity="0.99"/>
<path d="M71.4463 34.2924V25.5391H77.9042V27.0604H73.1517V29.1153H76.8127V30.6366H73.1517V32.771H77.9326V34.2924H71.452H71.4463Z" fill="#1E3A8A" fill-opacity="0.99"/>
<path d="M86.9713 27.0545H83.9357V34.2865H82.2302V27.0545H79.2059V25.5332H86.9713V27.0545Z" fill="#1E3A8A" fill-opacity="0.99"/>
<path d="M98.1306 34.2924H96.4024L94.697 28.4909L93.0313 34.2924H91.3032L88.1538 25.5391H90.0582L92.0934 31.6584L93.7988 25.5391H95.6179L97.3461 31.6698L99.3812 25.5391H101.286L98.1363 34.2924H98.1306Z" fill="#1E3A8A" fill-opacity="0.99"/>
<path d="M107.039 34.4171H103.935C102.496 34.4171 101.519 33.5316 101.519 32.1862V27.645C101.519 26.2996 102.496 25.4141 103.935 25.4141H107.039C108.46 25.4141 109.455 26.2996 109.455 27.645V32.1862C109.455 33.5316 108.465 34.4171 107.039 34.4171ZM106.567 26.9297H104.407C103.645 26.9297 103.224 27.3498 103.224 28.0083V31.8173C103.224 32.4757 103.645 32.8958 104.407 32.8958H106.567C107.317 32.8958 107.749 32.4757 107.749 31.8173V28.0083C107.749 27.3498 107.317 26.9297 106.567 26.9297Z" fill="#1E3A8A" fill-opacity="0.99"/>
<path d="M114.798 31.0681H112.206V34.2924H110.501V25.5391H115.429C116.868 25.5391 117.845 26.4303 117.845 27.77V28.8372C117.845 29.7738 117.351 30.5004 116.561 30.841L118.431 34.2924H116.436L114.798 31.0681ZM114.963 29.5467C115.714 29.5467 116.146 29.1267 116.146 28.4682V28.1389C116.146 27.4805 115.714 27.0604 114.963 27.0604H112.206V29.5467H114.963Z" fill="#1E3A8A" fill-opacity="0.99"/>
<path d="M122.092 30.6764H121.199V34.2924H119.494V25.5391H121.199V29.155H122.115L125.292 25.5391H127.544L123.581 29.8817L127.76 34.298H125.486L122.092 30.682V30.6764Z" fill="#1E3A8A" fill-opacity="0.99"/>
<path d="M128.931 34.0875L128.044 33.5426L128.743 32.271L129.607 32.7138C129.863 32.8387 130.267 32.8784 130.647 32.8784H133.137C133.888 32.8784 134.246 32.5605 134.246 31.9531V31.6352C134.246 31.0505 133.876 30.7327 132.961 30.6702L130.522 30.5056C129.084 30.4034 128.248 29.5519 128.248 28.1952V27.7752C128.248 26.1119 129.431 25.4023 131.199 25.4023H133.677C134.439 25.4023 135.099 25.7089 135.531 26.0892L134.809 27.321C134.399 27.0542 133.996 26.9293 133.501 26.9293H131.011C130.261 26.9293 129.96 27.2359 129.96 27.7184V28.0476C129.96 28.5699 130.312 28.8367 131.233 28.8991L133.734 29.0751C135.275 29.1886 135.957 30.1423 135.957 31.4706V31.9645C135.957 33.6277 134.877 34.4111 133.109 34.4111H130.591C129.891 34.4111 129.397 34.36 128.936 34.0818L128.931 34.0875Z" fill="#1E3A8A" fill-opacity="0.99"/>
<path d="M143.046 34.2924H141.341V25.5391H143.046V34.2924Z" fill="#1E3A8A" fill-opacity="0.99"/>
<path d="M152.108 34.2924H150.402L146.349 28.4909V34.2924H144.643V25.5391H146.349L150.402 31.3519V25.5391H152.108V34.2924Z" fill="#1E3A8A" fill-opacity="0.99"/>
<path d="M153.353 32.1862V27.645C153.353 26.2996 154.33 25.4141 155.769 25.4141H158.855C159.617 25.4141 160.277 25.7206 160.709 26.1009L159.987 27.3327C159.583 27.066 159.174 26.9411 158.679 26.9411H156.24C155.479 26.9411 155.058 27.3611 155.058 28.0196V31.8286C155.058 32.4871 155.479 32.9072 156.24 32.9072H157.792C158.554 32.9072 159.344 32.6006 159.862 32.1976L160.18 31.9819L161.186 33.1853L160.578 33.6167C159.816 34.1901 159.231 34.4285 158.264 34.4285H155.774C154.336 34.4285 153.358 33.5429 153.358 32.1976L153.353 32.1862Z" fill="#1E3A8A" fill-opacity="0.99"/>
<path d="M164 33.4005C164 33.9965 163.557 34.4166 162.96 34.4166C162.363 34.4166 161.942 33.9965 161.942 33.4005C161.942 32.8045 162.363 32.373 162.96 32.373C163.557 32.373 164 32.8158 164 33.4005Z" fill="#1E3A8A" fill-opacity="0.99"/>
<path d="M65.9433 22.4117H62.6632V5.53516H65.9433V22.4117Z" fill="#1E3A8A" fill-opacity="0.99"/>
<path d="M82.8669 8.46995H77.0116V22.4117H73.7315V8.46995H67.8989V5.53516H82.8669V8.46995Z" fill="#1E3A8A" fill-opacity="0.99"/>
<path d="M95.5326 22.4117H92.1274L84.9532 5.53516H88.6768L93.8442 18.4267L98.9662 5.53516H102.69L95.5383 22.4117H95.5326Z" fill="#1E3A8A" fill-opacity="0.99"/>
<path d="M107.658 22.4117H104.378V5.53516H107.658V22.4117Z" fill="#1E3A8A" fill-opacity="0.99"/>
<path d="M111.183 22.0197L109.466 20.9696L110.813 18.523L112.479 19.3801C112.968 19.6242 113.752 19.698 114.486 19.698H119.289C120.733 19.698 121.421 19.0849 121.421 17.9099V17.2968C121.421 16.1729 120.71 15.5598 118.948 15.4349L114.247 15.117C111.478 14.924 109.864 13.2835 109.864 10.6666V9.86049C109.864 6.65889 112.143 5.28516 115.549 5.28516H120.324C121.791 5.28516 123.07 5.87552 123.9 6.6078L122.501 8.98061C121.717 8.46972 120.932 8.22563 119.977 8.22563H115.173C113.73 8.22563 113.138 8.81032 113.138 9.74128V10.3771C113.138 11.3818 113.826 11.8927 115.588 12.0176L120.415 12.3582C123.377 12.5796 124.701 14.4131 124.701 16.9789V17.9326C124.701 21.1399 122.621 22.6555 119.215 22.6555H114.366C113.019 22.6555 112.064 22.559 111.183 22.0197Z" fill="#1E3A8A" fill-opacity="0.99"/>
<path d="M129.852 22.4117H126.571V5.53516H129.852V22.4117Z" fill="#1E3A8A" fill-opacity="0.99"/>
<path d="M142.659 22.6557H136.685C133.916 22.6557 132.029 20.9414 132.029 18.3528V9.59387C132.029 6.99967 133.916 5.29102 136.685 5.29102H142.659C145.405 5.29102 147.315 7.00535 147.315 9.59387V18.3528C147.315 20.947 145.405 22.6557 142.659 22.6557ZM141.755 8.22581H137.589C136.122 8.22581 135.309 9.03189 135.309 10.3034V17.6433C135.309 18.9148 136.116 19.7209 137.589 19.7209H141.755C143.199 19.7209 144.035 18.9148 144.035 17.6433V10.3034C144.035 9.03189 143.205 8.22581 141.755 8.22581Z" fill="#1E3A8A" fill-opacity="0.99"/>
<path d="M163.898 22.4117H160.618L152.801 11.2345V22.4117H149.521V5.53516H152.801L160.618 16.7407V5.53516H163.898V22.4117Z" fill="#1E3A8A" fill-opacity="0.99"/>
<path d="M38.4006 12.7337C38.4802 13.9882 38.6678 16.9344 37.4569 20.3063C37.4569 19.1766 37.4683 16.8265 36.1949 13.3468C34.6714 13.2389 32.3748 13.0686 29.4812 12.4783C30.7432 12.1206 33.3696 11.3713 35.399 10.2133C35.1546 8.95877 34.6487 6.34186 32.8409 4.09961C33.6936 4.90001 35.689 6.77896 37.3887 9.66266C38.7815 9.67969 39.6967 9.66267 40.5438 9.49237C40.3277 10.7526 39.8104 11.5416 38.4063 12.7337" fill="#FBBF24"/>
</g>
<defs>
<filter id="filter0_i_1514_536" x="14.1494" y="-4.5" width="27.6508" height="32.6113" filterUnits="userSpaceOnUse" color-interpolation-filters="sRGB">
<feFlood flood-opacity="0" result="BackgroundImageFix"/>
<feBlend mode="normal" in="SourceGraphic" in2="BackgroundImageFix" result="shape"/>
<feColorMatrix in="SourceAlpha" type="matrix" values="0 0 0 0 0 0 0 0 0 0 0 0 0 0 0 0 0 0 127 0" result="hardAlpha"/>
<feOffset dy="-5"/>
<feGaussianBlur stdDeviation="4"/>
<feComposite in2="hardAlpha" operator="arithmetic" k2="-1" k3="1"/>
<feColorMatrix type="matrix" values="0 0 0 0 0 0 0 0 0 0 0 0 0 0 0 0 0 0 0.25 0"/>
<feBlend mode="normal" in2="shape" result="effect1_innerShadow_1514_536"/>
</filter>
<radialGradient id="paint0_radial_1514_536" cx="0" cy="0" r="1" gradientUnits="userSpaceOnUse" gradientTransform="translate(12.7905 14.9749) rotate(57.2707) scale(22.6057 42.8204)">
<stop stop-color="#2563EB" stop-opacity="0.99"/>
<stop offset="0.764831" stop-color="#1E3A8A" stop-opacity="0.99"/>
</radialGradient>
<radialGradient id="paint1_radial_1514_536" cx="0" cy="0" r="1" gradientUnits="userSpaceOnUse" gradientTransform="translate(21.0334 18.3809) rotate(54.9694) scale(13.8649 26.2606)">
<stop stop-color="white"/>
<stop offset="1" stop-color="white" stop-opacity="0"/>
</radialGradient>
<clipPath id="clip0_1514_536">
<rect width="164" height="37" fill="white" transform="translate(0 0.5)"/>
</clipPath>
</defs>
</svg>
