<svg width="164" height="37" viewBox="0 0 164 37" fill="none" xmlns="http://www.w3.org/2000/svg">
<g clip-path="url(#clip0_1502_1334)">
<path d="M38.4231 4.76367C46.9429 5.28966 53.3727 8.56445 54.5188 13.7139C56.1882 21.2149 46.013 29.8538 31.7922 33.0098C17.5716 36.1655 4.69032 32.6435 3.02074 25.1426C1.82666 19.7775 6.692 13.8304 14.7629 9.72363C14.3637 11.0136 14.1496 12.3848 14.1496 13.8057C14.1498 21.4301 20.3394 27.6113 27.9748 27.6113C35.6103 27.6113 41.7999 21.4301 41.8 13.8057C41.8 10.3475 40.5271 7.18588 38.4231 4.76367Z" fill="url(#paint0_radial_1502_1334)"/>
<path d="M38.4231 4.76367C46.9429 5.28966 53.3727 8.56445 54.5188 13.7139C56.1882 21.2149 46.013 29.8538 31.7922 33.0098C17.5716 36.1655 4.69032 32.6435 3.02074 25.1426C1.82666 19.7775 6.692 13.8304 14.7629 9.72363C14.3637 11.0136 14.1496 12.3848 14.1496 13.8057C14.1498 21.4301 20.3394 27.6113 27.9748 27.6113C35.6103 27.6113 41.7999 21.4301 41.8 13.8057C41.8 10.3475 40.5271 7.18588 38.4231 4.76367Z" fill="url(#paint1_radial_1502_1334)" fill-opacity="0.5"/>
<path d="M38.4231 4.76367C46.9429 5.28966 53.3727 8.56445 54.5188 13.7139C56.1882 21.2149 46.013 29.8538 31.7922 33.0098C17.5716 36.1655 4.69032 32.6435 3.02074 25.1426C1.82666 19.7775 6.692 13.8304 14.7629 9.72363C14.3637 11.0136 14.1496 12.3848 14.1496 13.8057C14.1498 21.4301 20.3394 27.6113 27.9748 27.6113C35.6103 27.6113 41.7999 21.4301 41.8 13.8057C41.8 10.3475 40.5271 7.18588 38.4231 4.76367Z" fill="white"/>
<g filter="url(#filter0_i_1502_1334)">
<path d="M27.9748 27.6109C35.6103 27.6109 41.8001 21.43 41.8001 13.8055C41.8001 6.18091 35.6103 0 27.9748 0C20.3392 0 14.1494 6.18091 14.1494 13.8055C14.1494 21.43 20.3392 27.6109 27.9748 27.6109Z" fill="white" fill-opacity="0.01"/>
</g>
<path d="M70.1217 33.7924H68.4163L64.363 27.9909V33.7924H62.6576V25.0391H64.363L68.4163 30.8519V25.0391H70.1217V33.7924Z" fill="white"/>
<path d="M71.4463 33.7924V25.0391H77.9042V26.5604H73.1517V28.6153H76.8127V30.1366H73.1517V32.271H77.9326V33.7924H71.452H71.4463Z" fill="white"/>
<path d="M86.9713 26.5545H83.9357V33.7865H82.2302V26.5545H79.2059V25.0332H86.9713V26.5545Z" fill="white"/>
<path d="M98.1306 33.7924H96.4024L94.697 27.9909L93.0313 33.7924H91.3032L88.1538 25.0391H90.0582L92.0934 31.1584L93.7988 25.0391H95.6179L97.3461 31.1698L99.3812 25.0391H101.286L98.1363 33.7924H98.1306Z" fill="white"/>
<path d="M107.039 33.9171H103.935C102.496 33.9171 101.519 33.0316 101.519 31.6862V27.145C101.519 25.7996 102.496 24.9141 103.935 24.9141H107.039C108.46 24.9141 109.455 25.7996 109.455 27.145V31.6862C109.455 33.0316 108.465 33.9171 107.039 33.9171ZM106.567 26.4297H104.407C103.645 26.4297 103.224 26.8498 103.224 27.5083V31.3173C103.224 31.9757 103.645 32.3958 104.407 32.3958H106.567C107.317 32.3958 107.749 31.9757 107.749 31.3173V27.5083C107.749 26.8498 107.317 26.4297 106.567 26.4297Z" fill="white"/>
<path d="M114.798 30.5681H112.206V33.7924H110.501V25.0391H115.429C116.868 25.0391 117.845 25.9303 117.845 27.27V28.3372C117.845 29.2738 117.351 30.0004 116.561 30.341L118.431 33.7924H116.436L114.798 30.5681ZM114.963 29.0467C115.714 29.0467 116.146 28.6267 116.146 27.9682V27.6389C116.146 26.9805 115.714 26.5604 114.963 26.5604H112.206V29.0467H114.963Z" fill="white"/>
<path d="M122.092 30.1764H121.199V33.7924H119.494V25.0391H121.199V28.655H122.115L125.292 25.0391H127.544L123.581 29.3817L127.76 33.798H125.486L122.092 30.182V30.1764Z" fill="white"/>
<path d="M128.931 33.5875L128.044 33.0426L128.743 31.771L129.607 32.2138C129.863 32.3387 130.267 32.3784 130.647 32.3784H133.137C133.888 32.3784 134.246 32.0605 134.246 31.4531V31.1352C134.246 30.5505 133.876 30.2327 132.961 30.1702L130.522 30.0056C129.084 29.9034 128.248 29.0519 128.248 27.6952V27.2752C128.248 25.6119 129.431 24.9023 131.199 24.9023H133.677C134.439 24.9023 135.099 25.2089 135.531 25.5892L134.809 26.821C134.399 26.5542 133.996 26.4293 133.501 26.4293H131.011C130.261 26.4293 129.96 26.7359 129.96 27.2184V27.5476C129.96 28.0699 130.312 28.3367 131.233 28.3991L133.734 28.5751C135.275 28.6886 135.957 29.6423 135.957 30.9706V31.4645C135.957 33.1277 134.877 33.9111 133.109 33.9111H130.591C129.891 33.9111 129.397 33.86 128.936 33.5818L128.931 33.5875Z" fill="white"/>
<path d="M143.046 33.7924H141.341V25.0391H143.046V33.7924Z" fill="white"/>
<path d="M152.108 33.7924H150.402L146.349 27.9909V33.7924H144.643V25.0391H146.349L150.402 30.8519V25.0391H152.108V33.7924Z" fill="white"/>
<path d="M153.353 31.6862V27.145C153.353 25.7996 154.33 24.9141 155.769 24.9141H158.855C159.617 24.9141 160.277 25.2206 160.709 25.6009L159.987 26.8327C159.583 26.566 159.174 26.4411 158.679 26.4411H156.24C155.479 26.4411 155.058 26.8611 155.058 27.5196V31.3286C155.058 31.9871 155.479 32.4072 156.24 32.4072H157.792C158.554 32.4072 159.344 32.1006 159.862 31.6976L160.18 31.4819L161.186 32.6853L160.578 33.1167C159.816 33.6901 159.231 33.9285 158.264 33.9285H155.774C154.336 33.9285 153.358 33.0429 153.358 31.6976L153.353 31.6862Z" fill="white"/>
<path d="M164 32.9005C164 33.4965 163.557 33.9166 162.96 33.9166C162.363 33.9166 161.942 33.4965 161.942 32.9005C161.942 32.3045 162.363 31.873 162.96 31.873C163.557 31.873 164 32.3158 164 32.9005Z" fill="white"/>
<path d="M65.9433 21.9117H62.6632V5.03516H65.9433V21.9117Z" fill="white"/>
<path d="M82.8669 7.96995H77.0116V21.9117H73.7315V7.96995H67.8989V5.03516H82.8669V7.96995Z" fill="white"/>
<path d="M95.5326 21.9117H92.1274L84.9532 5.03516H88.6768L93.8442 17.9267L98.9662 5.03516H102.69L95.5383 21.9117H95.5326Z" fill="white"/>
<path d="M107.658 21.9117H104.378V5.03516H107.658V21.9117Z" fill="white"/>
<path d="M111.183 21.5197L109.466 20.4696L110.813 18.023L112.479 18.8801C112.968 19.1242 113.752 19.198 114.486 19.198H119.289C120.733 19.198 121.421 18.5849 121.421 17.4099V16.7968C121.421 15.6729 120.71 15.0598 118.948 14.9349L114.247 14.617C111.478 14.424 109.864 12.7835 109.864 10.1666V9.36049C109.864 6.15889 112.143 4.78516 115.549 4.78516H120.324C121.791 4.78516 123.07 5.37552 123.9 6.1078L122.501 8.48061C121.717 7.96972 120.932 7.72563 119.977 7.72563H115.173C113.73 7.72563 113.138 8.31032 113.138 9.24128V9.87706C113.138 10.8818 113.826 11.3927 115.588 11.5176L120.415 11.8582C123.377 12.0796 124.701 13.9131 124.701 16.4789V17.4326C124.701 20.6399 122.621 22.1555 119.215 22.1555H114.366C113.019 22.1555 112.064 22.059 111.183 21.5197Z" fill="white"/>
<path d="M129.852 21.9117H126.571V5.03516H129.852V21.9117Z" fill="white"/>
<path d="M142.659 22.1557H136.685C133.916 22.1557 132.029 20.4414 132.029 17.8528V9.09387C132.029 6.49967 133.916 4.79102 136.685 4.79102H142.659C145.405 4.79102 147.315 6.50535 147.315 9.09387V17.8528C147.315 20.447 145.405 22.1557 142.659 22.1557ZM141.755 7.72581H137.589C136.122 7.72581 135.309 8.53189 135.309 9.80344V17.1433C135.309 18.4148 136.116 19.2209 137.589 19.2209H141.755C143.199 19.2209 144.035 18.4148 144.035 17.1433V9.80344C144.035 8.53189 143.205 7.72581 141.755 7.72581Z" fill="white"/>
<path d="M163.898 21.9117H160.618L152.801 10.7345V21.9117H149.521V5.03516H152.801L160.618 16.2407V5.03516H163.898V21.9117Z" fill="white"/>
<path d="M38.4006 12.2337C38.4802 13.4882 38.6678 16.4344 37.4569 19.8063C37.4569 18.6766 37.4683 16.3265 36.1949 12.8468C34.6714 12.7389 32.3748 12.5686 29.4812 11.9783C30.7432 11.6206 33.3696 10.8713 35.399 9.71329C35.1546 8.45877 34.6487 5.84186 32.8409 3.59961C33.6936 4.40001 35.689 6.27896 37.3887 9.16266C38.7815 9.17969 39.6967 9.16267 40.5438 8.99237C40.3277 10.2526 39.8104 11.0416 38.4063 12.2337" fill="#F59E0B"/>
</g>
<defs>
<filter id="filter0_i_1502_1334" x="14.1494" y="-5" width="27.6508" height="32.6113" filterUnits="userSpaceOnUse" color-interpolation-filters="sRGB">
<feFlood flood-opacity="0" result="BackgroundImageFix"/>
<feBlend mode="normal" in="SourceGraphic" in2="BackgroundImageFix" result="shape"/>
<feColorMatrix in="SourceAlpha" type="matrix" values="0 0 0 0 0 0 0 0 0 0 0 0 0 0 0 0 0 0 127 0" result="hardAlpha"/>
<feOffset dy="-5"/>
<feGaussianBlur stdDeviation="4"/>
<feComposite in2="hardAlpha" operator="arithmetic" k2="-1" k3="1"/>
<feColorMatrix type="matrix" values="0 0 0 0 0 0 0 0 0 0 0 0 0 0 0 0 0 0 0.25 0"/>
<feBlend mode="normal" in2="shape" result="effect1_innerShadow_1502_1334"/>
</filter>
<radialGradient id="paint0_radial_1502_1334" cx="0" cy="0" r="1" gradientUnits="userSpaceOnUse" gradientTransform="translate(12.7908 14.4749) rotate(57.2707) scale(22.6057 42.8204)">
<stop stop-color="#2563EB" stop-opacity="0.99"/>
<stop offset="0.764831" stop-color="#1E3A8A" stop-opacity="0.99"/>
</radialGradient>
<radialGradient id="paint1_radial_1502_1334" cx="0" cy="0" r="1" gradientUnits="userSpaceOnUse" gradientTransform="translate(21.0337 17.8809) rotate(54.9694) scale(13.8649 26.2606)">
<stop stop-color="white"/>
<stop offset="1" stop-color="white" stop-opacity="0"/>
</radialGradient>
<clipPath id="clip0_1502_1334">
<rect width="164" height="37" fill="white"/>
</clipPath>
</defs>
</svg>
