<svg width="48" height="33" viewBox="0 0 48 33" fill="none" xmlns="http://www.w3.org/2000/svg">
<rect width="48" height="33" rx="6" fill="#1F72CD"/>
<rect x="0.5" y="0.5" width="47" height="32" rx="5.5" stroke="#E5E5E5" stroke-opacity="0.99"/>
<path fill-rule="evenodd" clip-rule="evenodd" d="M8.60524 11.6875L4.11426 21.6518H9.49059L10.1571 20.0631H11.6806L12.3471 21.6518H18.2649V20.4392L18.7922 21.6518H21.8534L22.3807 20.4136V21.6518H34.6882L36.1847 20.1043L37.586 21.6518L43.9074 21.6646L39.4023 16.6975L43.9074 11.6875H37.6841L36.2273 13.2064L34.8701 11.6875H21.4812L20.3315 14.2594L19.1548 11.6875H13.7897V12.8588L13.1929 11.6875H8.60524ZM26.9839 13.1024H34.0515L36.2131 15.4435L38.4444 13.1024H40.606L37.3217 16.6961L40.606 20.2482H38.3464L36.1847 17.88L33.9421 20.2482H26.9839V13.1024ZM28.7292 15.8881V14.5828V14.5816H33.1392L35.0634 16.669L33.0539 18.7678H28.7292V17.3429H32.5849V15.8881H28.7292ZM9.64553 13.1024H12.2662L15.2451 19.8593V13.1024H18.1159L20.4167 17.9471L22.5372 13.1024H25.3937V20.2525H23.6556L23.6414 14.6498L21.1074 20.2525H19.5526L17.0044 14.6498V20.2525H13.4287L12.7508 18.6495H9.08844L8.41196 20.2511H6.49614L9.64553 13.1024ZM9.71379 17.1677L10.9204 14.3122L12.1256 17.1677H9.71379Z" fill="#EFF6FF" fill-opacity="0.99"/>
</svg>
