<svg width="48" height="33" viewBox="0 0 48 33" fill="none" xmlns="http://www.w3.org/2000/svg">
<rect width="48" height="33" rx="6" fill="#EFF6FF" fill-opacity="0.99"/>
<rect x="0.5" y="0.5" width="47" height="32" rx="5.5" stroke="#E5E5E5" stroke-opacity="0.99"/>
<path fill-rule="evenodd" clip-rule="evenodd" d="M11.4462 12.2828C12.0908 12.3373 12.7355 11.9557 13.1384 11.4718C13.5345 10.9744 13.7964 10.3065 13.7293 9.625C13.1585 9.65226 12.4534 10.0066 12.0505 10.5041C11.6812 10.9335 11.3656 11.6286 11.4462 12.2828ZM19.1146 21.0604V10.436H23.0428C25.0707 10.436 26.4875 11.8535 26.4875 13.9252C26.4875 15.9969 25.0438 17.4281 22.9891 17.4281H20.7396V21.0604H19.1146ZM13.7225 12.4123C13.1546 12.3791 12.6364 12.5856 12.2178 12.7524C11.9485 12.8598 11.7204 12.9507 11.5469 12.9507C11.3521 12.9507 11.1146 12.8549 10.848 12.7474C10.4985 12.6065 10.0991 12.4455 9.68014 12.4532C8.71991 12.4668 7.82683 13.0188 7.33665 13.8979C6.32942 15.6562 7.07477 18.2595 8.04843 19.6906C8.52518 20.3994 9.09594 21.1763 9.84801 21.149C10.1789 21.1363 10.4169 21.0338 10.6632 20.9278C10.9468 20.8056 11.2413 20.6788 11.7013 20.6788C12.1453 20.6788 12.427 20.8023 12.6975 20.9209C12.9546 21.0337 13.2015 21.142 13.568 21.1354C14.347 21.1218 14.8372 20.4266 15.3139 19.7179C15.8284 18.9572 16.0545 18.2148 16.0888 18.1021L16.0928 18.0891C16.092 18.0883 16.0857 18.0853 16.0744 18.0801C15.9025 18.0002 14.5879 17.3894 14.5753 15.7516C14.5626 14.3769 15.618 13.6804 15.7841 13.5707L15.7841 13.5707L15.7841 13.5707C15.7942 13.564 15.801 13.5595 15.8041 13.5572C15.1326 12.5486 14.0851 12.4396 13.7225 12.4123ZM29.4556 21.1422C30.4762 21.1422 31.423 20.6174 31.8528 19.786H31.8863V21.0604H33.3905V15.772C33.3905 14.2387 32.1818 13.2505 30.3218 13.2505C28.5961 13.2505 27.3202 14.2523 27.2732 15.6289H28.7371C28.8579 14.9747 29.4556 14.5454 30.2748 14.5454C31.2686 14.5454 31.8259 15.0156 31.8259 15.8811V16.4672L29.798 16.5898C27.9111 16.7057 26.8905 17.4894 26.8905 18.8524C26.8905 20.229 27.9447 21.1422 29.4556 21.1422ZM29.8919 19.8814C29.0257 19.8814 28.4751 19.4589 28.4751 18.8115C28.4751 18.1436 29.0056 17.7552 30.0195 17.6939L31.8258 17.578V18.1777C31.8258 19.1727 30.9932 19.8814 29.8919 19.8814ZM38.3796 21.4761C37.7282 23.3366 36.9829 23.9499 35.3982 23.9499C35.2773 23.9499 34.8744 23.9363 34.7804 23.9091V22.6347C34.8811 22.6483 35.1296 22.6619 35.2571 22.6619C35.9756 22.6619 36.3785 22.3553 36.627 21.5579L36.7747 21.0877L34.0216 13.3528H35.7205L37.6342 19.6293H37.6678L39.5815 13.3528H41.2334L38.3796 21.4761ZM20.7394 11.8262H22.6129C24.023 11.8262 24.8288 12.5895 24.8288 13.932C24.8288 15.2746 24.023 16.0446 22.6062 16.0446H20.7394V11.8262Z" fill="black"/>
</svg>
