<svg width="48" height="33" viewBox="0 0 48 33" fill="none" xmlns="http://www.w3.org/2000/svg">
<rect width="48" height="33" rx="6" fill="#EFF6FF" fill-opacity="0.99"/>
<rect x="0.5" y="0.5" width="47" height="32" rx="5.5" stroke="#E5E5E5" stroke-opacity="0.99"/>
<path d="M26.1189 26.8123C31.4641 26.8382 36.3429 22.4016 36.3429 17.0045C36.3429 11.1029 31.4641 7.02319 26.1189 7.02539H21.5186C16.1097 7.02319 11.6572 11.104 11.6572 17.0045C11.6572 22.4027 16.1097 26.8382 21.5186 26.8123H26.1189Z" fill="#0079BE"/>
<path d="M21.5406 7.84375C16.5975 7.8454 12.5926 11.8987 12.5909 16.9015C12.5926 21.9037 16.5975 25.957 21.5406 25.9586C26.4842 25.957 30.4907 21.9037 30.4913 16.9015C30.4907 11.8987 26.4847 7.8454 21.5406 7.84375ZM15.868 16.9015C15.867 15.7448 16.214 14.6147 16.8637 13.6589C17.5134 12.7031 18.4357 11.966 19.5098 11.5441V22.2583C18.4356 21.8367 17.5133 21.0997 16.8635 20.144C16.2137 19.1882 15.8668 18.0581 15.868 16.9015ZM23.5707 22.2606V11.5435C24.6457 11.9649 25.5687 12.7019 26.2189 13.658C26.8691 14.6141 27.2162 15.7448 27.2147 16.902C27.216 18.0592 26.8688 19.1898 26.2186 20.1459C25.5684 21.1019 24.6456 21.839 23.5707 22.2606Z" fill="#EFF6FF" fill-opacity="0.99"/>
<path d="M26.1189 26.8123C31.4641 26.8382 36.3429 22.4016 36.3429 17.0045C36.3429 11.1029 31.4641 7.02319 26.1189 7.02539H21.5186C16.1097 7.02319 11.6572 11.104 11.6572 17.0045C11.6572 22.4027 16.1097 26.8382 21.5186 26.8123H26.1189Z" fill="#0079BE"/>
<path d="M21.5406 7.84375C16.5975 7.8454 12.5926 11.8987 12.5909 16.9015C12.5926 21.9037 16.5975 25.957 21.5406 25.9586C26.4842 25.957 30.4907 21.9037 30.4913 16.9015C30.4907 11.8987 26.4847 7.8454 21.5406 7.84375ZM15.868 16.9015C15.867 15.7448 16.214 14.6147 16.8637 13.6589C17.5134 12.7031 18.4357 11.966 19.5098 11.5441V22.2583C18.4356 21.8367 17.5133 21.0997 16.8635 20.144C16.2137 19.1882 15.8668 18.0581 15.868 16.9015ZM23.5707 22.2606V11.5435C24.6457 11.9649 25.5687 12.7019 26.2189 13.658C26.8691 14.6141 27.2162 15.7448 27.2147 16.902C27.216 18.0592 26.8688 19.1898 26.2186 20.1459C25.5684 21.1019 24.6456 21.839 23.5707 22.2606Z" fill="#EFF6FF" fill-opacity="0.99"/>
</svg>
