<svg width="48" height="33" viewBox="0 0 48 33" fill="none" xmlns="http://www.w3.org/2000/svg">
<rect width="48" height="33" rx="6" fill="#EFF6FF" fill-opacity="0.99"/>
<rect x="0.5" y="0.5" width="47" height="32" rx="5.5" stroke="#E5E5E5" stroke-opacity="0.99"/>
<path d="M20.2069 32.3125L47.2926 24.4062V27.3125C47.2926 30.0739 45.0541 32.3125 42.2926 32.3125H20.2069Z" fill="#FD6020"/>
<path d="M20.47 13.2146C20.9914 13.2146 21.5875 13.2885 22.0345 13.5838V15.0613C21.6619 14.6182 21.066 14.323 20.47 14.323C19.278 14.397 18.3096 15.4311 18.3841 16.6131V16.7605C18.3841 17.9424 19.3523 18.8287 20.5443 18.8289C21.1402 18.8289 21.662 18.5337 22.0345 18.0906V19.5681C21.5131 19.7897 20.9917 19.9373 20.3958 19.9373C18.5331 19.9373 17.0433 18.3857 17.0433 16.5388C17.0434 14.6182 18.533 13.0669 20.47 13.2146ZM32.1673 17.6472L33.9554 13.2146H35.2972L32.5403 19.9373H31.8694L29.1126 13.2146H30.4544L32.1673 17.6472ZM14.5101 13.0672C15.1804 13.0673 15.851 13.3623 16.3724 13.8054L15.7015 14.6922C15.4035 14.3967 15.031 14.1746 14.6585 14.1746C14.2116 14.1008 13.8395 14.4707 13.765 14.9138C13.765 15.2831 13.988 15.431 14.7327 15.7263C16.2229 16.3173 16.5957 16.7608 16.6702 17.6472V17.8689C16.5957 19.0509 15.6269 19.9369 14.4349 19.8631C13.5409 19.863 12.6465 19.4198 12.1995 18.6072L13.0198 17.7947C13.2434 18.3118 13.7646 18.6814 14.3607 18.6814H14.4349C14.8818 18.6814 15.3292 18.2384 15.3294 17.7215C15.3294 17.426 15.1799 17.2042 14.9564 17.0564C14.6585 16.9088 14.3607 16.7612 14.0628 16.6873C12.8707 16.3179 12.4984 15.8003 12.4984 14.9138V14.8396C12.573 13.8055 13.4671 12.9933 14.5101 13.0672ZM6.76105 13.2146C8.54907 13.2886 9.96434 14.766 9.88995 16.5388C9.88995 17.4991 9.44339 18.3857 8.69855 19.0506C8.02799 19.5677 7.20757 19.8637 6.388 19.7898H4.5257V13.2146H6.76105ZM11.678 19.7898H10.4114V13.2146H11.678V19.7898ZM39.4691 14.323H37.1595V15.8006H39.3948V16.908H37.1595V18.6814H39.4691V19.7898H35.8929V13.2146H39.4691V14.323ZM42.1517 13.2146C43.6415 13.2148 44.4622 13.8798 44.4622 15.1355C44.5366 16.0955 43.8656 16.9083 42.972 17.0564L44.9837 19.7898H43.4183L41.7054 17.1297H41.556V19.7898H40.2894V13.2146H42.1517ZM6.16437 14.323H5.7923V18.6814H6.16437C6.76042 18.7553 7.43119 18.5332 7.87823 18.1638C8.32521 17.7206 8.54913 17.1295 8.54913 16.4646C8.54899 15.8738 8.32513 15.2827 7.87823 14.8396C7.4312 14.4704 6.76028 14.2492 6.16437 14.323ZM41.556 16.2439H41.928C42.7473 16.2438 43.1204 15.8735 43.1204 15.2088C43.1202 14.6182 42.747 14.2489 41.928 14.2488H41.556V16.2439Z" fill="black"/>
<path fill-rule="evenodd" clip-rule="evenodd" d="M25.8346 13.0625C23.9719 13.0625 22.4073 14.54 22.4073 16.4607C22.4073 18.3076 23.8974 19.859 25.8346 19.9328C27.7718 20.0067 29.2619 18.4553 29.3364 16.5346C29.2619 14.6139 27.7718 13.0625 25.8346 13.0625V13.0625Z" fill="#FD6020"/>
</svg>
