<svg width="48" height="33" viewBox="0 0 48 33" fill="none" xmlns="http://www.w3.org/2000/svg">
<rect width="48" height="33" rx="6" fill="#EFF6FF" fill-opacity="0.99"/>
<rect x="0.5" y="0.5" width="47" height="32" rx="5.5" stroke="#E5E5E5" stroke-opacity="0.99"/>
<path d="M37.7106 19.6885H37.734L39.736 14.6514H41.1432L36.818 24.75H35.484L37.0914 21.2178L34.2535 14.6514H35.6608L37.7106 19.6885ZM30.942 14.4229C31.8984 14.4229 32.654 14.6842 33.2086 15.1992C33.7633 15.7143 34.0367 16.4342 34.0367 17.3418V21.667H32.7985V20.6943H32.7428C32.2042 21.4956 31.4964 21.8965 30.6041 21.8965C29.8486 21.8965 29.2053 21.6677 28.6989 21.21C28.2005 20.7848 27.9191 20.1545 27.9352 19.4922C27.9352 18.7646 28.2083 18.1921 28.7467 17.7588C29.2853 17.3254 30.0095 17.1133 30.9098 17.1133C31.6812 17.1133 32.308 17.2602 32.8063 17.5381V17.2354C32.8062 16.7857 32.6136 16.3607 32.276 16.0664C31.9303 15.7557 31.4881 15.584 31.0299 15.584C30.3067 15.584 29.7359 15.8945 29.318 16.5156L28.1764 15.7881C28.7873 14.8806 29.7122 14.4229 30.942 14.4229ZM24.9635 11.4141C25.736 11.4379 26.4769 11.7529 27.027 12.3047C28.2006 13.4167 28.2727 15.2892 27.1715 16.4912L27.027 16.6387C26.4241 17.2192 25.6844 17.5137 24.8082 17.5137H22.6696V21.667H21.3756V11.4141H24.9635ZM31.111 18.1758C30.5884 18.1758 30.1464 18.3071 29.7926 18.5605C29.447 18.814 29.2702 19.1324 29.2701 19.5166C29.2701 19.8599 29.4307 20.1787 29.6959 20.375C29.9853 20.6039 30.339 20.7269 30.7008 20.7188C31.2475 20.7188 31.77 20.4979 32.1559 20.1055C32.582 19.6966 32.7994 19.2142 32.7994 18.6582C32.3974 18.3311 31.8346 18.1676 31.111 18.1758ZM22.6696 16.2539H24.8405C25.3228 16.2703 25.7891 16.0742 26.1188 15.7227C26.7941 15.0113 26.7782 13.8665 26.0787 13.1797C25.7491 12.8527 25.3067 12.6729 24.8405 12.6729H22.6696V16.2539Z" fill="#3C4043"/>
<path d="M18.2017 16.6137C18.2017 16.2131 18.1696 15.8124 18.1053 15.4199H12.647V17.6849H15.774C15.6454 18.4126 15.2274 19.0668 14.6165 19.4756V20.9474H16.4814C17.5747 19.9253 18.2017 18.4126 18.2017 16.6137Z" fill="#4285F4"/>
<path d="M12.6472 22.3702C14.2067 22.3702 15.5251 21.8469 16.4817 20.9475L14.6167 19.4756C14.0942 19.8354 13.427 20.0398 12.6472 20.0398C11.1359 20.0398 9.85779 19.0014 9.39958 17.6113H7.47833V19.1322C8.45906 21.1192 10.4607 22.3702 12.6472 22.3702Z" fill="#34A853"/>
<path d="M9.39976 17.6113C9.15856 16.8836 9.15856 16.0904 9.39976 15.3545V13.8418H7.47821C6.65009 15.5017 6.65009 17.4641 7.47821 19.124L9.39976 17.6113Z" fill="#FBBC04"/>
<path d="M12.6472 12.9264C13.4752 12.9101 14.271 13.229 14.8659 13.8095L16.5219 12.1251C15.4688 11.1276 14.0862 10.5797 12.6472 10.5961C10.4607 10.5961 8.45905 11.8553 7.47833 13.8422L9.39958 15.3631C9.85779 13.9649 11.1359 12.9264 12.6472 12.9264Z" fill="#EA4335"/>
</svg>
