<svg width="48" height="33" viewBox="0 0 48 33" fill="none" xmlns="http://www.w3.org/2000/svg">
<rect width="48" height="33" rx="6" fill="#EFF6FF" fill-opacity="0.99"/>
<rect x="0.5" y="0.5" width="47" height="32" rx="5.5" stroke="#E5E5E5" stroke-opacity="0.99"/>
<path d="M30.6078 16.8952C31.3123 16.9106 32.0207 16.8641 32.7224 16.9194C33.433 17.0523 33.6042 18.1309 32.9729 18.4841C32.5422 18.7168 32.0305 18.5707 31.5635 18.6118H30.6078V16.8952ZM33.1297 14.9523C33.2862 15.5062 32.7537 16.0035 32.2216 15.9273H30.6078C30.6191 15.4049 30.5857 14.838 30.6242 14.3432C31.2707 14.3614 31.9231 14.3059 32.5659 14.3722C32.8421 14.4417 33.0732 14.6694 33.1297 14.9523ZM37.0136 6.73832C37.0436 7.79611 37.0179 8.90981 37.0265 9.98905C37.0245 14.3769 37.0307 18.7646 37.0231 23.1526C36.9948 24.7971 35.5412 26.226 33.9123 26.2588C32.282 26.2655 30.6513 26.2598 29.0207 26.2617V19.6282C30.7973 19.619 32.5749 19.6468 34.3508 19.6143C35.1746 19.5624 36.077 19.0174 36.1154 18.1084C36.2124 17.1955 35.3539 16.5641 34.5389 16.4644C34.2256 16.4562 34.2347 16.3728 34.5389 16.3364C35.3162 16.1679 35.9267 15.3613 35.698 14.5534C35.5031 13.7037 34.5664 13.3749 33.7873 13.3765C32.1986 13.3657 30.6097 13.375 29.021 13.3719C29.0313 12.1335 28.9996 10.8937 29.0381 9.65626C29.164 8.0415 30.6542 6.70985 32.2601 6.73874C33.8448 6.7385 35.4292 6.7385 37.0136 6.73844V6.73832Z" fill="url(#paint0_linear_1479_2799)"/>
<path d="M11.0683 9.82381C11.1088 8.18197 12.5686 6.76479 14.1953 6.7408C15.8197 6.73578 17.4443 6.74007 19.0687 6.73862C19.0642 12.2319 19.0775 17.7257 19.062 23.2187C18.9994 24.8405 17.5556 26.2307 15.9466 26.2594C14.3191 26.2653 12.6915 26.2603 11.064 26.2619V19.4048C12.6448 19.7792 14.3026 19.9386 15.9153 19.6902C16.8793 19.5347 17.9341 19.0601 18.2605 18.0574C18.5006 17.1996 18.3654 16.2969 18.4012 15.4166V13.3722H15.6102C15.5976 14.7243 15.6358 16.0788 15.59 17.4293C15.5147 18.2594 14.6948 18.7868 13.9139 18.7587C12.9455 18.7689 11.0265 18.055 11.0265 18.055C11.0217 15.5216 11.0546 12.349 11.0683 9.82405V9.82381Z" fill="url(#paint1_linear_1479_2799)"/>
<path d="M20.1095 14.1971C19.9626 14.2283 20.08 13.6954 20.0424 13.4932C20.0524 12.2148 20.0215 10.9351 20.0595 9.65768C20.185 8.03609 21.6866 6.70111 23.299 6.73907H28.0475C28.0431 12.2323 28.0563 17.7262 28.0408 23.2191C27.9782 24.841 26.5342 26.2311 24.9251 26.2599C23.2977 26.266 21.67 26.2608 20.0424 26.2624V18.7495C21.1539 19.6639 22.6647 19.8063 24.0496 19.8087C25.0936 19.8084 26.1315 19.647 27.1454 19.4056V18.0292C26.0028 18.6001 24.6597 18.9628 23.3931 18.6348C22.5096 18.4143 21.8682 17.5582 21.8825 16.644C21.7801 15.6933 22.3359 14.6896 23.2678 14.407C24.4247 14.0439 25.6856 14.3216 26.77 14.7937C27.0024 14.9157 27.2382 15.067 27.1453 14.6776V13.5958C25.3316 13.1631 23.4014 13.0039 21.5793 13.4746C21.0518 13.6237 20.538 13.85 20.1095 14.1972V14.1971Z" fill="url(#paint2_linear_1479_2799)"/>
<defs>
<linearGradient id="paint0_linear_1479_2799" x1="28.966" y1="16.0826" x2="36.976" y2="16.0826" gradientUnits="userSpaceOnUse">
<stop stop-color="#58B03A"/>
<stop offset="1" stop-color="#55B330"/>
</linearGradient>
<linearGradient id="paint1_linear_1479_2799" x1="10.8937" y1="16.6872" x2="18.9375" y2="16.6872" gradientUnits="userSpaceOnUse">
<stop stop-color="#0F6EB6"/>
<stop offset="1" stop-color="#006DBA"/>
</linearGradient>
<linearGradient id="paint2_linear_1479_2799" x1="20.0306" y1="16.2724" x2="28.046" y2="16.2724" gradientUnits="userSpaceOnUse">
<stop stop-color="#DE0D3D"/>
<stop offset="1" stop-color="#E30138"/>
</linearGradient>
</defs>
</svg>
