<svg width="48" height="33" viewBox="0 0 48 33" fill="none" xmlns="http://www.w3.org/2000/svg">
<rect width="48" height="33" rx="6" fill="#FEB4C7"/>
<rect x="0.5" y="0.5" width="47" height="32" rx="5.5" stroke="#E5E5E5" stroke-opacity="0.99"/>
<path d="M19.2572 14.9121C19.905 14.9122 20.5057 15.1179 21.0033 15.4678V15.0791H22.765V21.1445H21.0033V20.7568C20.5057 21.1066 19.905 21.3124 19.2572 21.3125C17.5425 21.3125 16.1518 19.8797 16.1517 18.1123C16.1517 16.3448 17.5424 14.9121 19.2572 14.9121ZM37.8431 14.9121C38.491 14.9122 39.0916 15.1179 39.5892 15.4678V15.0791H41.351V21.1445H39.5892V20.7568C39.0916 21.1066 38.491 21.3124 37.8431 21.3125C36.1284 21.3125 34.7377 19.8797 34.7377 18.1123C34.7377 16.3448 36.1284 14.9121 37.8431 14.9121ZM43.2211 18.9932C43.8315 18.9932 44.3265 19.5035 44.3265 20.1328C44.3265 20.762 43.8316 21.2724 43.2211 21.2725C42.6105 21.2725 42.1156 20.7621 42.1156 20.1328C42.1157 19.5035 42.6106 18.9932 43.2211 18.9932ZM7.43884 12.375V21.1475H5.48572V12.375H7.43884ZM12.3148 12.375C12.3148 14.274 11.597 16.0404 10.3177 17.3535L13.017 21.1475H10.6049L7.67224 17.0244L8.42908 16.4404C9.68443 15.4711 10.4047 13.9892 10.4047 12.375H12.3148ZM15.4301 21.1445H13.5853V12.377H15.4301V21.1445ZM25.4906 15.8691C25.8438 15.3955 26.502 15.0801 27.2172 15.0801V16.8447C27.21 16.8446 27.2028 16.8438 27.1957 16.8438C26.4987 16.8439 25.4948 17.3575 25.4945 18.3125V21.1445H23.6869V15.0791H25.4906V15.8691ZM31.6078 14.916C33.0268 14.9162 34.1156 15.8768 34.1156 17.2881V21.1445H32.3558V17.9443C32.3557 17.06 31.9102 16.583 31.1361 16.583C30.4138 16.5831 29.814 17.035 29.8138 17.957V21.1445H28.0385V15.0801H29.7924V15.7627C30.2376 15.1415 30.9041 14.916 31.6078 14.916ZM19.4017 16.5518C18.5202 16.5518 17.8051 17.2505 17.8051 18.1123C17.8051 18.9741 18.5202 19.6729 19.4017 19.6729C20.2832 19.6727 20.9974 18.974 20.9974 18.1123C20.9974 17.2506 20.2833 16.5519 19.4017 16.5518ZM37.9877 16.5518C37.106 16.5518 36.391 17.2505 36.391 18.1123C36.3911 18.9741 37.1061 19.6729 37.9877 19.6729C38.8692 19.6727 39.5833 18.974 39.5834 18.1123C39.5834 17.2506 38.8692 16.5519 37.9877 16.5518Z" fill="#17120F"/>
</svg>
