<svg width="48" height="33" viewBox="0 0 48 33" fill="none" xmlns="http://www.w3.org/2000/svg">
<rect width="48" height="33" rx="6" fill="#EFF6FF" fill-opacity="0.99"/>
<rect x="0.5" y="0.5" width="47" height="32" rx="5.5" stroke="#E5E5E5" stroke-opacity="0.99"/>
<path d="M18.2005 7.18359C23.3688 7.18364 27.5587 11.4329 27.5589 16.6748C27.5589 21.9168 23.3689 26.1669 18.2005 26.167C13.0321 26.167 8.84213 21.9169 8.84213 16.6748C8.84234 11.4329 13.0322 7.18359 18.2005 7.18359Z" fill="#ED0006"/>
<path d="M30.341 7.18359C35.5093 7.18364 39.6992 11.4329 39.6994 16.6748C39.6994 21.9168 35.5094 26.1669 30.341 26.167C25.1726 26.167 20.9826 21.9169 20.9826 16.6748C20.9828 11.4329 25.1727 7.18359 30.341 7.18359Z" fill="#0099DF"/>
<path d="M24.2708 9.45312C26.2821 11.194 27.5589 13.7828 27.5589 16.6748C27.5588 19.5664 26.2817 22.1537 24.2708 23.8945C22.2599 22.1537 20.9829 19.5664 20.9827 16.6748C20.9827 13.7828 22.2595 11.1941 24.2708 9.45312Z" fill="#6C6BBD"/>
</svg>
