<svg width="48" height="33" viewBox="0 0 48 33" fill="none" xmlns="http://www.w3.org/2000/svg">
<rect width="48" height="33" rx="6" fill="#EFF6FF" fill-opacity="0.99"/>
<rect x="0.5" y="0.5" width="47" height="32" rx="5.5" stroke="#E5E5E5" stroke-opacity="0.99"/>
<path d="M30.4133 6.875C35.5816 6.87511 39.7715 11.1244 39.7717 16.3662C39.7717 21.6082 35.5817 25.8583 30.4133 25.8584C28.0959 25.8584 25.9765 25.002 24.342 23.5869C22.7077 25.0015 20.5897 25.8584 18.2727 25.8584C13.1043 25.8584 8.91431 21.6083 8.91431 16.3662C8.91452 11.1243 13.1044 6.875 18.2727 6.875C20.5893 6.87502 22.7078 7.73037 24.342 9.14453C25.9764 7.72986 28.0963 6.875 30.4133 6.875Z" fill="#ED0006"/>
<path d="M30.4132 6.875C35.5815 6.87503 39.7714 11.1243 39.7716 16.3662C39.7716 21.6083 35.5816 25.8584 30.4132 25.8584C28.0959 25.8584 25.9773 25.0018 24.3429 23.5869C26.3539 21.846 27.631 19.258 27.631 16.3662C27.6308 13.4741 26.3543 10.8854 24.3429 9.14453C25.9772 7.73011 28.0964 6.875 30.4132 6.875Z" fill="#F9A000"/>
<path d="M24.343 9.14453C26.3543 10.8855 27.6311 13.4742 27.6311 16.3662C27.6309 19.2578 26.3539 21.8451 24.343 23.5859C22.3321 21.8451 21.055 19.2578 21.0549 16.3662C21.0549 13.4742 22.3317 10.8855 24.343 9.14453Z" fill="#FF5E00"/>
</svg>
