<svg width="48" height="33" viewBox="0 0 48 33" fill="none" xmlns="http://www.w3.org/2000/svg">
<rect width="48" height="33" rx="6" fill="#EFF6FF" fill-opacity="0.99"/>
<rect x="0.5" y="0.5" width="47" height="32" rx="5.5" stroke="#E5E5E5" stroke-opacity="0.99"/>
<path fill-rule="evenodd" clip-rule="evenodd" d="M13.5771 20.957H11.4437C11.2977 20.957 11.1736 21.0634 11.1508 21.2079L10.2879 26.6928C10.2708 26.8011 10.3544 26.8986 10.4639 26.8986H11.4824C11.6284 26.8986 11.7526 26.7923 11.7753 26.6475L12.0081 25.1682C12.0305 25.0233 12.155 24.917 12.3007 24.917H12.976C14.3814 24.917 15.1924 24.2352 15.4043 22.8841C15.4997 22.293 15.4084 21.8285 15.1322 21.5031C14.829 21.1461 14.2912 20.957 13.5771 20.957ZM13.8233 22.9603C13.7066 23.7279 13.1217 23.7279 12.5561 23.7279H12.2342L12.4601 22.2944C12.4735 22.2078 12.5483 22.144 12.6357 22.144H12.7832C13.1685 22.144 13.532 22.144 13.7198 22.3642C13.8317 22.4956 13.866 22.6907 13.8233 22.9603ZM19.9544 22.9357H18.9328C18.8458 22.9357 18.7705 22.9996 18.7571 23.0863L18.7119 23.3727L18.6405 23.2689C18.4193 22.947 17.9262 22.8395 17.4339 22.8395C16.3048 22.8395 15.3407 23.6968 15.1528 24.8994C15.0553 25.4992 15.194 26.0728 15.5334 26.4728C15.8448 26.8406 16.2903 26.9939 16.8202 26.9939C17.7298 26.9939 18.2344 26.4074 18.2344 26.4074L18.1888 26.6921C18.1716 26.8009 18.2552 26.8985 18.364 26.8985H19.2843C19.4307 26.8985 19.5541 26.7921 19.5772 26.6474L20.1294 23.1415C20.1469 23.0337 20.0636 22.9357 19.9544 22.9357ZM18.5303 24.9293C18.4317 25.5145 17.9685 25.9073 17.3777 25.9073C17.0811 25.9073 16.8439 25.812 16.6917 25.6312C16.5407 25.4517 16.4833 25.1961 16.5314 24.9115C16.6235 24.3313 17.0945 23.9257 17.6763 23.9257C17.9663 23.9257 18.2022 24.0223 18.3575 24.2046C18.5131 24.3889 18.5749 24.6459 18.5303 24.9293ZM24.3689 22.9356H25.3956C25.5393 22.9356 25.6232 23.0973 25.5415 23.2155L22.1269 28.1571C22.0716 28.2372 21.9806 28.2848 21.8833 28.2848H20.8579C20.7135 28.2848 20.6292 28.1218 20.7128 28.0033L21.776 26.4986L20.6452 23.1714C20.6061 23.0557 20.6913 22.9356 20.814 22.9356H21.8228C21.9538 22.9356 22.0695 23.0219 22.1073 23.1476L22.7074 25.1572L24.1235 23.066C24.1789 22.9844 24.271 22.9356 24.3689 22.9356Z" fill="#253B80"/>
<path fill-rule="evenodd" clip-rule="evenodd" d="M35.5 26.6931L36.3756 21.1078C36.389 21.0212 36.4639 20.9573 36.551 20.957H37.5367C37.6455 20.957 37.7291 21.0549 37.7119 21.1631L36.8485 26.6478C36.826 26.7925 36.7018 26.8989 36.5556 26.8989H35.6753C35.5664 26.8989 35.4829 26.8014 35.5 26.6931ZM28.7946 20.9573H26.6608C26.5151 20.9573 26.391 21.0637 26.3682 21.2082L25.5053 26.6931C25.4881 26.8014 25.5717 26.8989 25.6807 26.8989H26.7756C26.8773 26.8989 26.9644 26.8245 26.9803 26.7232L27.2251 25.1684C27.2476 25.0236 27.3721 24.9173 27.5177 24.9173H28.1928C29.5984 24.9173 30.4093 24.2355 30.6213 22.8844C30.7171 22.2932 30.6251 21.8288 30.3491 21.5034C30.0461 21.1463 29.5086 20.9573 28.7946 20.9573ZM29.0407 22.9606C28.9244 23.7282 28.3394 23.7282 27.7735 23.7282H27.4519L27.6781 22.2947C27.6915 22.2081 27.7657 22.1443 27.8534 22.1443H28.0009C28.3859 22.1443 28.7497 22.1443 28.9374 22.3645C29.0494 22.4959 29.0835 22.691 29.0407 22.9606ZM35.1713 22.936H34.1504C34.0626 22.936 33.9881 22.9999 33.975 23.0865L33.9298 23.373L33.8581 23.2692C33.6369 22.9473 33.1441 22.8398 32.6518 22.8398C31.5227 22.8398 30.5588 23.6971 30.371 24.8997C30.2737 25.4995 30.4119 26.0731 30.7513 26.4731C31.0632 26.8409 31.5082 26.9942 32.0381 26.9942C32.9477 26.9942 33.4521 26.4077 33.4521 26.4077L33.4067 26.6924C33.3895 26.8012 33.4731 26.8988 33.5826 26.8988H34.5025C34.6482 26.8988 34.7723 26.7924 34.7951 26.6477L35.3476 23.1418C35.3645 23.034 35.2809 22.936 35.1713 22.936ZM33.7473 24.9296C33.6493 25.5148 33.1855 25.9076 32.5946 25.9076C32.2985 25.9076 32.0609 25.8122 31.9086 25.6315C31.7576 25.452 31.7009 25.1964 31.7484 24.9118C31.8409 24.3316 32.3114 23.926 32.8932 23.926C33.1833 23.926 33.4191 24.0226 33.5745 24.2049C33.7307 24.3892 33.7925 24.6462 33.7473 24.9296Z" fill="#179BD7"/>
<path d="M21.4725 18.9935L21.7348 17.3232L21.1505 17.3096H18.3607L20.2995 4.98436C20.3054 4.94715 20.3251 4.91245 20.3537 4.88782C20.3822 4.86319 20.4189 4.84961 20.457 4.84961H25.161C26.7227 4.84961 27.8004 5.17543 28.3631 5.81851C28.6269 6.1202 28.7949 6.43545 28.8762 6.78239C28.9613 7.14643 28.9629 7.58135 28.8796 8.11181L28.8736 8.15053V8.49042L29.1375 8.64026C29.3596 8.75841 29.536 8.89367 29.6715 9.04854C29.8972 9.30647 30.0432 9.6343 30.1048 10.023C30.1685 10.4227 30.1474 10.8983 30.0432 11.4369C29.9228 12.0563 29.7282 12.5958 29.4654 13.0373C29.2236 13.4441 28.9157 13.7814 28.5502 14.0429C28.2011 14.2913 27.7864 14.4799 27.3175 14.6006C26.863 14.7191 26.3451 14.779 25.7769 14.779H25.4108C25.149 14.779 24.8947 14.8736 24.6952 15.043C24.4951 15.216 24.3626 15.4522 24.322 15.7107L24.2944 15.8611L23.831 18.8049L23.81 18.913C23.8045 18.9473 23.7949 18.9644 23.7809 18.976C23.7684 18.9864 23.7503 18.9935 23.7327 18.9935H21.4725Z" fill="#253B80"/>
<path d="M29.3872 8.19141C29.3732 8.2814 29.3572 8.37341 29.3391 8.46794C28.7187 11.6613 26.5964 12.7644 23.8858 12.7644H22.5057C22.1742 12.7644 21.8949 13.0058 21.8432 13.3336L21.1365 17.8267L20.9365 19.1002C20.9028 19.3155 21.0684 19.5096 21.2849 19.5096H23.7329C24.0227 19.5096 24.2689 19.2984 24.3145 19.0118L24.3386 18.887L24.7996 15.9547L24.8292 15.7939C24.8742 15.5063 25.1209 15.2951 25.4108 15.2951H25.7769C28.1485 15.2951 30.0051 14.3297 30.5477 11.5361C30.7744 10.369 30.657 9.39462 30.0572 8.70929C29.8757 8.50263 29.6505 8.33118 29.3872 8.19141Z" fill="#179BD7"/>
<path d="M28.738 7.93223C28.6433 7.90457 28.5454 7.87943 28.4451 7.8568C28.3443 7.83469 28.241 7.81508 28.1347 7.79798C27.7626 7.73764 27.3549 7.70898 26.9181 7.70898H23.2311C23.1403 7.70898 23.0541 7.72959 22.9769 7.76681C22.8068 7.84876 22.6805 8.01017 22.6499 8.20776L21.8654 13.1886L21.8429 13.3339C21.8946 13.006 22.1739 12.7647 22.5054 12.7647H23.8855C26.5961 12.7647 28.7185 11.661 29.3389 8.46822C29.3573 8.37369 29.3729 8.28168 29.3869 8.19168C29.23 8.10821 29.0599 8.03681 28.8769 7.97597C28.8319 7.96089 28.7852 7.94631 28.738 7.93223Z" fill="#222D65"/>
<path d="M22.6499 8.20704C22.6805 8.00943 22.807 7.84803 22.9769 7.76657C23.0547 7.72936 23.1404 7.70875 23.2311 7.70875H26.9182C27.3551 7.70875 27.7627 7.73741 28.1348 7.79775C28.2412 7.81484 28.3445 7.83445 28.4453 7.85657C28.5456 7.87921 28.6433 7.90435 28.7382 7.93199C28.7853 7.94607 28.8319 7.96065 28.8775 7.97524C29.0606 8.03607 29.2306 8.10798 29.3875 8.19094C29.5722 7.01086 29.3861 6.20738 28.7497 5.47981C28.0481 4.67885 26.7818 4.33594 25.1615 4.33594H20.4573C20.1263 4.33594 19.8441 4.57727 19.7928 4.90561L17.8336 17.3576C17.7949 17.6039 17.9844 17.8262 18.2322 17.8262H21.1364L21.8656 13.1878L22.6499 8.20704Z" fill="#253B80"/>
</svg>
