<svg width="48" height="33" viewBox="0 0 48 33" fill="none" xmlns="http://www.w3.org/2000/svg">
<rect width="48" height="33" rx="6" fill="#EFF6FF" fill-opacity="0.99"/>
<rect x="0.5" y="0.5" width="47" height="32" rx="5.5" stroke="#E5E5E5" stroke-opacity="0.99"/>
<path d="M14.8495 6.87695H22.414C23.4699 6.87695 24.1267 7.73987 23.8804 8.80207L20.3585 23.962C20.11 25.0205 19.0528 25.8841 17.9961 25.8841H10.4323C9.37788 25.8841 8.71965 25.0205 8.96598 23.962L12.4893 8.80207C12.7356 7.73987 13.7923 6.87695 14.8495 6.87695Z" fill="#E21836"/>
<path d="M21.7841 6.875H30.4831C31.5389 6.875 31.0628 7.73792 30.8144 8.80012L27.2932 23.96C27.0461 25.0185 27.1232 25.8822 26.0652 25.8822H17.3662C16.3083 25.8822 15.6536 25.0185 15.9021 23.96L19.4232 8.80012C19.6732 7.73792 20.7277 6.875 21.7841 6.875Z" fill="#00447C"/>
<path d="M30.1382 6.875H37.7027C38.7601 6.875 39.4169 7.73792 39.1685 8.80012L35.6473 23.96C35.3987 25.0185 34.3408 25.8822 33.2835 25.8822H25.7225C24.6646 25.8822 24.0084 25.0185 24.2562 23.96L27.778 8.80012C28.0243 7.73792 29.0803 6.875 30.1382 6.875Z" fill="#007B84"/>
<path d="M16.8247 11.7338C16.0468 11.7417 15.8171 11.7338 15.7437 11.7164C15.7155 11.8508 15.1905 14.2786 15.1891 14.2806C15.076 14.7718 14.9938 15.1219 14.7145 15.348C14.5559 15.4794 14.3708 15.5428 14.1562 15.5428C13.8112 15.5428 13.6102 15.3711 13.5765 15.0454L13.57 14.9335C13.57 14.9335 13.6751 14.2756 13.6751 14.2719C13.6751 14.2719 14.2261 12.0595 14.3247 11.7671C14.3299 11.7504 14.3313 11.7417 14.3326 11.7338C13.2603 11.7432 13.0702 11.7338 13.0571 11.7164C13.0499 11.7403 13.0234 11.8774 13.0234 11.8774L12.4608 14.371L12.4125 14.5825L12.319 15.2742C12.319 15.4794 12.3592 15.6469 12.4392 15.7885C12.6955 16.2375 13.4266 16.3048 13.8402 16.3048C14.373 16.3048 14.8729 16.1913 15.2106 15.9841C15.797 15.6367 15.9504 15.0938 16.0872 14.6113L16.1506 14.3638C16.1506 14.3638 16.7181 12.066 16.8145 11.7671C16.8182 11.7504 16.8197 11.7417 16.8247 11.7338ZM18.7556 13.5874C18.6188 13.5874 18.3688 13.6207 18.1442 13.7311C18.0627 13.773 17.9857 13.8215 17.9043 13.8697L17.9777 13.6041L17.9375 13.5594C17.4613 13.656 17.3547 13.669 16.9148 13.7311L16.8779 13.7557C16.8268 14.1803 16.7815 14.4995 16.5921 15.3342C16.52 15.6418 16.4452 15.9523 16.3701 16.2592L16.3904 16.2982C16.8412 16.2744 16.978 16.2744 17.3698 16.2808L17.4016 16.2463C17.4513 15.9906 17.4578 15.9307 17.568 15.4129C17.6199 15.1674 17.7279 14.628 17.7812 14.4359C17.8791 14.3905 17.9757 14.3457 18.0679 14.3457C18.2875 14.3457 18.2608 14.5378 18.2523 14.6143C18.2429 14.7428 18.1628 15.1624 18.0808 15.5227L18.026 15.7553C17.9879 15.927 17.946 16.0939 17.9079 16.2642L17.9244 16.2982C18.3688 16.2744 18.5043 16.2744 18.8838 16.2808L18.9284 16.2463C18.997 15.847 19.0171 15.7401 19.1388 15.1587L19.2 14.8916C19.3189 14.3688 19.3786 14.1038 19.2887 13.8878C19.1935 13.6459 18.9653 13.5874 18.7556 13.5874ZM20.9127 14.1348C20.6765 14.1803 20.5259 14.2106 20.3762 14.2302C20.2277 14.254 20.083 14.2757 19.8547 14.3075L19.8367 14.3239L19.8201 14.337C19.7963 14.5075 19.7797 14.6548 19.7482 14.828C19.7214 15.0071 19.6803 15.2107 19.6134 15.5031C19.5616 15.727 19.5348 15.805 19.5053 15.8837C19.4766 15.9625 19.4449 16.039 19.3866 16.2592L19.4002 16.2795L19.4117 16.2982C19.625 16.288 19.7646 16.2808 19.908 16.2795C20.0513 16.2743 20.1997 16.2795 20.4294 16.2808L20.4495 16.2644L20.4711 16.2463C20.5043 16.0477 20.5093 15.9943 20.5296 15.8974C20.5497 15.7935 20.5843 15.6497 20.6693 15.2656C20.7095 15.0852 20.7543 14.9053 20.796 14.7212C20.8393 14.5378 20.8847 14.3572 20.9278 14.1768L20.9214 14.1549L20.9127 14.1348ZM20.9177 13.3968C20.7031 13.2698 20.3264 13.3101 20.0729 13.4855C19.8201 13.6575 19.7914 13.9015 20.0053 14.0301C20.2162 14.1536 20.5943 14.1168 20.8456 13.9399C21.0979 13.7643 21.1294 13.5225 20.9177 13.3968ZM22.2157 16.338C22.6499 16.338 23.095 16.218 23.43 15.862C23.6877 15.5732 23.8059 15.1436 23.8469 14.9667C23.9802 14.3803 23.8764 14.1066 23.746 13.9398C23.548 13.6856 23.198 13.6041 22.835 13.6041C22.6167 13.6041 22.0967 13.6258 21.6906 14.0012C21.3989 14.272 21.2641 14.6395 21.1828 14.9919C21.1007 15.3509 21.0063 15.9971 21.5991 16.2376C21.782 16.3164 22.0457 16.338 22.2157 16.338ZM22.1817 15.0187C22.2819 14.5746 22.4 14.202 22.7017 14.202C22.9381 14.202 22.9552 14.4792 22.8501 14.9248C22.8313 15.0237 22.745 15.3913 22.6283 15.5479C22.5468 15.6634 22.4504 15.7335 22.3438 15.7335C22.3121 15.7335 22.1235 15.7335 22.1205 15.4527C22.1191 15.3141 22.1473 15.1725 22.1817 15.0187ZM24.9323 16.2809L24.9662 16.2463C25.0143 15.9907 25.0223 15.9306 25.1288 15.413C25.1821 15.1675 25.2924 14.6281 25.3442 14.436C25.4423 14.3903 25.5372 14.3456 25.6324 14.3456C25.8505 14.3456 25.824 14.5377 25.8153 14.6142C25.8074 14.7429 25.7273 15.1623 25.6438 15.5226L25.592 15.7552C25.5524 15.9271 25.5092 16.0938 25.4711 16.2643L25.4876 16.2983C25.9335 16.2744 26.0638 16.2744 26.4455 16.2809L26.4916 16.2463C26.5585 15.8468 26.5766 15.74 26.702 15.1588L26.7617 14.8915C26.8812 14.3687 26.9417 14.1038 26.8532 13.8879C26.7553 13.6459 26.5255 13.5875 26.3188 13.5875C26.1818 13.5875 25.9305 13.6206 25.7072 13.7311C25.6274 13.7731 25.5474 13.8214 25.4688 13.8698L25.5372 13.6041L25.5006 13.5592C25.0245 13.6561 24.9157 13.669 24.4763 13.7311L24.4426 13.7557C24.3893 14.1803 24.346 14.4994 24.1566 15.3342C24.0845 15.6418 24.0097 15.9524 23.9348 16.2593L23.9549 16.2983C24.4065 16.2744 24.5412 16.2744 24.9323 16.2809ZM28.2079 16.2982C28.2359 16.161 28.4024 15.348 28.4039 15.348C28.4039 15.348 28.5457 14.7515 28.5543 14.7298C28.5543 14.7298 28.5989 14.6677 28.6436 14.6431H28.7092C29.3285 14.6431 30.0279 14.6431 30.576 14.2389C30.949 13.9616 31.204 13.5521 31.3178 13.0545C31.3473 12.9325 31.369 12.7873 31.369 12.6422C31.369 12.4516 31.3309 12.2631 31.2206 12.1158C30.9411 11.7237 30.3845 11.7165 29.7419 11.7135C29.7399 11.7135 29.4251 11.7165 29.4251 11.7165C28.6026 11.7266 28.2728 11.7237 28.1373 11.707C28.1258 11.7671 28.1043 11.874 28.1043 11.874C28.1043 11.874 27.8096 13.243 27.8096 13.2452C27.8096 13.2452 27.1046 16.156 27.0714 16.2932C27.7895 16.2845 28.084 16.2845 28.2079 16.2982ZM28.7538 13.8662C28.7538 13.8662 29.0671 12.4999 29.0656 12.5051L29.0757 12.435L29.0802 12.3816L29.2054 12.3945C29.2054 12.3945 29.8514 12.4502 29.8665 12.4516C30.1215 12.5505 30.2266 12.8055 30.1533 13.1382C30.0863 13.4423 29.8896 13.698 29.6368 13.8214C29.4286 13.9261 29.1736 13.9348 28.9109 13.9348H28.7409L28.7538 13.8662ZM30.7042 15.044C30.6215 15.3978 30.5263 16.0441 31.1161 16.2744C31.3042 16.3546 31.4727 16.3785 31.644 16.3698C31.8249 16.36 31.9925 16.269 32.1477 16.1381C32.1337 16.1919 32.1197 16.2457 32.1057 16.2997L32.1324 16.3343C32.5567 16.3163 32.6883 16.3163 33.148 16.3199L33.1897 16.2881C33.2568 15.8925 33.32 15.5083 33.4944 14.7515C33.5794 14.389 33.6643 14.03 33.7515 13.669L33.7378 13.6292C33.2632 13.7174 33.1364 13.7363 32.6799 13.8012L32.6452 13.8294C32.6406 13.8662 32.6358 13.9015 32.6314 13.9369C32.5604 13.8219 32.4575 13.7237 32.2988 13.6625C32.0958 13.5825 31.6189 13.6856 31.2091 14.0598C30.9211 14.3269 30.7828 14.6929 30.7042 15.044ZM31.701 15.0656C31.8026 14.6295 31.9193 14.2605 32.2217 14.2605C32.4129 14.2605 32.5136 14.4374 32.4931 14.7391C32.4769 14.8144 32.4593 14.8937 32.4385 14.9833C32.4083 15.1129 32.3755 15.2414 32.3436 15.3701C32.3111 15.4581 32.2733 15.5411 32.2318 15.5963C32.154 15.7069 31.9689 15.7755 31.8623 15.7755C31.8321 15.7755 31.6455 15.7755 31.639 15.4996C31.6376 15.3623 31.6658 15.2209 31.701 15.0656ZM36.9061 13.6257L36.8694 13.5838C36.3998 13.6791 36.3148 13.6943 35.8833 13.7527L35.8516 13.7845C35.8502 13.7897 35.8489 13.7976 35.8467 13.8048L35.8452 13.7976C35.524 14.5406 35.5334 14.3803 35.2719 14.9652C35.2705 14.9386 35.2705 14.9219 35.269 14.8937L35.2035 13.6257L35.1624 13.5838C34.6705 13.6791 34.6589 13.6943 34.2046 13.7527L34.1692 13.7845C34.1642 13.7997 34.1642 13.8163 34.1613 13.8344L34.1642 13.8409C34.221 14.1319 34.2073 14.067 34.2643 14.5262C34.2909 14.7515 34.3263 14.9781 34.3528 15.2007C34.3976 15.5732 34.4227 15.7566 34.4775 16.325C34.1707 16.8326 34.098 17.0247 33.8026 17.4702L33.8047 17.4747L33.5967 17.8044C33.5729 17.8392 33.5513 17.863 33.5211 17.8732C33.4879 17.8897 33.4448 17.8926 33.3848 17.8926H33.2696L33.0983 18.4638L33.6859 18.474C34.0309 18.4725 34.2477 18.3108 34.3644 18.0934L34.7339 17.4586H34.728L34.7669 17.4138C35.0155 16.8774 36.9061 13.6257 36.9061 13.6257ZM30.7042 21.1277H30.455L31.3776 18.0681H31.6836L31.7808 17.753L31.7902 18.1035C31.7788 18.3201 31.9488 18.5122 32.3953 18.4804H32.9118L33.0895 17.8912H32.8952C32.7835 17.8912 32.7317 17.8629 32.7381 17.8023L32.7287 17.4457H31.7723V17.4476C31.4631 17.454 30.5398 17.4773 30.3528 17.5272C30.1266 17.5857 29.8882 17.7576 29.8882 17.7576L29.9818 17.442H29.0872L28.9008 18.0681L27.9658 21.1745H27.7844L27.6065 21.7594H29.3883L29.3286 21.9544H30.2066L30.2649 21.7594H30.5112L30.7042 21.1277ZM29.9732 18.6898C29.8299 18.7296 29.5633 18.8501 29.5633 18.8501L29.8004 18.0681H30.5112L30.3397 18.6379C30.3397 18.6379 30.1201 18.6508 29.9732 18.6898ZM29.9868 19.8069C29.9868 19.8069 29.7635 19.835 29.6166 19.8683C29.4718 19.9123 29.2004 20.0509 29.2004 20.0509L29.4453 19.2372H30.1598L29.9868 19.8069ZM29.5886 21.1349H28.8756L29.0823 20.4482H29.793L29.5886 21.1349ZM31.3056 19.2372H32.3333L32.1856 19.7167H31.1443L30.9879 20.241H31.8991L31.2092 21.215C31.1609 21.2865 31.1175 21.3119 31.0694 21.332C31.0211 21.3566 30.9577 21.3854 30.8843 21.3854H30.6315L30.4578 21.9596H31.119C31.4627 21.9596 31.6657 21.8028 31.8156 21.5971L32.2887 20.9479L32.3903 21.6071C32.4119 21.7306 32.5004 21.8028 32.5603 21.8309C32.6265 21.8642 32.6949 21.9213 32.7915 21.9298C32.8951 21.9343 32.97 21.9378 33.0198 21.9378H33.3446L33.5397 21.2952H33.4116C33.338 21.2952 33.2113 21.2828 33.1898 21.2597C33.1682 21.2316 33.1682 21.1884 33.1566 21.1226L33.0535 20.4619H32.6315L32.8166 20.241H33.8559L34.0158 19.7167H33.0535L33.2034 19.2372H34.1627L34.3407 18.6458H31.4806L31.3056 19.2372ZM22.6254 21.2685L22.8653 20.4684H23.8511L24.0313 19.8733H23.0445L23.1951 19.3809H24.1594L24.3381 18.8047H21.9253L21.7503 19.3809H22.2985L22.1523 19.8733H21.6026L21.4205 20.4786H21.9685L21.6487 21.5371C21.6056 21.6772 21.669 21.7306 21.7092 21.7957C21.7503 21.8591 21.792 21.9011 21.8857 21.9249C21.9823 21.9465 22.0485 21.9595 22.1385 21.9595H23.2499L23.4479 21.3003L22.9552 21.3681C22.8601 21.3681 22.5966 21.3566 22.6254 21.2685ZM22.7385 17.4384L22.4886 17.8911C22.4352 17.99 22.387 18.0514 22.3437 18.0797C22.3056 18.1035 22.23 18.1135 22.1204 18.1135H21.9901L21.8158 18.6927H22.2488C22.4569 18.6927 22.6168 18.6162 22.6931 18.5779C22.7752 18.5339 22.7967 18.559 22.8602 18.4977L23.0064 18.3707H24.3582L24.5376 17.7677H23.5481L23.7208 17.4384H22.7385ZM24.7343 21.2801C24.7112 21.2468 24.7278 21.1882 24.763 21.0662L25.1325 19.84H26.447C26.6385 19.8373 26.7768 19.8351 26.8668 19.8286C26.9634 19.8184 27.0685 19.7839 27.183 19.7217C27.3012 19.6567 27.3617 19.5881 27.4127 19.5093C27.4697 19.4308 27.5612 19.2589 27.6397 18.9938L28.1041 17.4421L26.7401 17.45C26.7401 17.45 26.3201 17.5121 26.1352 17.5807C25.9486 17.6572 25.682 17.8709 25.682 17.8709L25.8051 17.4456H24.9625L23.7829 21.3681C23.741 21.5204 23.713 21.631 23.7065 21.6973C23.7043 21.7689 23.7965 21.8397 23.8563 21.8931C23.9269 21.9465 24.0312 21.9378 24.1313 21.9465C24.2366 21.9545 24.3863 21.9595 24.593 21.9595H25.2406L25.4393 21.2866L24.8596 21.3415C24.7977 21.3415 24.7529 21.3082 24.7343 21.2801ZM25.3709 19.0119H26.7515L26.6638 19.2877C26.6514 19.2942 26.6219 19.274 26.4814 19.2906H25.2859L25.3709 19.0119ZM25.6475 18.0869H27.0397L26.9396 18.419C26.9396 18.419 26.2834 18.4126 26.1783 18.432C25.7159 18.5122 25.4458 18.7599 25.4458 18.7599L25.6475 18.0869ZM26.6947 20.2113C26.6833 20.2525 26.6652 20.2777 26.6399 20.2965C26.6119 20.3146 26.5665 20.3211 26.4989 20.3211H26.3021L26.3138 19.9852H25.4955L25.4623 21.6273C25.461 21.7458 25.4724 21.8144 25.5589 21.8693C25.6454 21.9379 25.9118 21.9466 26.2704 21.9466H26.7832L26.9683 21.3319L26.5219 21.3565L26.3735 21.3652C26.3532 21.3565 26.3339 21.3486 26.3123 21.3269C26.2935 21.3083 26.2618 21.3197 26.2669 21.2012L26.2704 20.7803L26.7386 20.7609C26.9913 20.7609 27.0994 20.6784 27.1916 20.5999C27.2795 20.5246 27.3083 20.4381 27.3415 20.3211L27.42 19.9484H26.7767L26.6947 20.2113Z" fill="#FEFEFE"/>
</svg>
