<svg width="48" height="33" viewBox="0 0 48 33" fill="none" xmlns="http://www.w3.org/2000/svg">
<rect width="48" height="33" rx="6" fill="#EFF6FF" fill-opacity="0.99"/>
<rect x="0.5" y="0.5" width="47" height="32" rx="5.5" stroke="#E5E5E5" stroke-opacity="0.99"/>
<path fill-rule="evenodd" clip-rule="evenodd" d="M14.5718 22.3551H11.6639L9.48338 14.0145C9.37989 13.6308 9.16013 13.2917 8.83688 13.1318C8.03016 12.7301 7.14121 12.4103 6.17145 12.2491V11.928H10.8558C11.5023 11.928 11.9872 12.4103 12.068 12.9706L13.1994 18.9869L16.1058 11.928H18.9329L14.5718 22.3551ZM20.5492 22.3551H17.8029L20.0643 11.928H22.8105L20.5492 22.3551ZM26.3635 14.8166C26.4443 14.255 26.9292 13.9339 27.4949 13.9339C28.3838 13.8533 29.3522 14.0145 30.1603 14.4149L30.6452 12.1699C29.8371 11.8488 28.9481 11.6875 28.1414 11.6875C25.476 11.6875 23.5364 13.1318 23.5364 15.1363C23.5364 16.6613 24.9103 17.462 25.88 17.9443C26.9292 18.4253 27.3333 18.7464 27.2524 19.2274C27.2524 19.9488 26.4443 20.27 25.6376 20.27C24.6678 20.27 23.6981 20.0295 22.8105 19.6277L22.3256 21.8741C23.2954 22.2745 24.3446 22.4357 25.3143 22.4357C28.303 22.515 30.1603 21.072 30.1603 18.9063C30.1603 16.1789 26.3635 16.019 26.3635 14.8166ZM39.7715 22.3551L37.5909 11.928H35.2487C34.7638 11.928 34.279 12.2491 34.1173 12.7301L30.0795 22.3551H32.9066L33.4708 20.8315H36.9444L37.2676 22.3551H39.7715ZM35.6528 14.736L36.4595 18.6658H34.1982L35.6528 14.736Z" fill="#172B85"/>
</svg>
